<?xml version="1.0" standalone="no"?>
<!DOCTYPE svg PUBLIC "-//W3C//DTD SVG 20010904//EN"
 "http://www.w3.org/TR/2001/REC-SVG-20010904/DTD/svg10.dtd">
<svg version="1.0" xmlns="http://www.w3.org/2000/svg"
 width="250.000000pt" height="100.000000pt" viewBox="0 0 250.000000 100.000000"
 preserveAspectRatio="xMidYMid meet">
<metadata>
Created by potrace 1.16, written by Peter Selinger 2001-2019
</metadata>
<g transform="translate(0.000000,100.000000) scale(0.078125,-0.071429)"
fill="#000000" stroke="none">
<path d="M1570 690 c0 -373 3 -570 10 -570 7 0 10 197 10 570 0 373 -3 570
-10 570 -7 0 -10 -197 -10 -570z"/>
<path d="M1074 1119 c3 -13 11 -45 17 -71 27 -120 -51 -266 -171 -322 -71 -33
-188 -30 -262 7 -128 63 -189 205 -154 362 14 66 -11 28 -30 -44 -38 -151 33
-306 173 -377 51 -26 68 -29 148 -29 109 0 165 23 237 97 82 84 112 225 72
341 -17 49 -43 80 -30 36z"/>
<path d="M560 990 c0 -45 4 -80 8 -78 4 2 52 18 105 37 53 19 97 37 97 41 0 4
-42 22 -92 40 -51 18 -99 35 -105 38 -10 3 -13 -16 -13 -78z"/>
<path d="M755 957 c-3 -7 -5 -54 -3 -103 l3 -89 40 0 40 0 0 100 0 100 -38 3
c-25 2 -39 -1 -42 -11z"/>
<path d="M683 943 l-43 -15 0 -63 0 -63 40 -16 c22 -9 45 -16 50 -16 12 0 14
177 3 183 -5 2 -27 -2 -50 -10z"/>
<path d="M2204 497 c-3 -8 -4 -41 -2 -73 2 -44 7 -59 18 -59 8 0 17 11 20 25
l6 25 18 -27 c14 -22 26 -28 52 -28 19 0 34 4 34 9 0 15 49 19 54 5 3 -8 13
-14 21 -14 19 0 16 15 -22 99 -14 32 -27 51 -32 45 -5 -5 -19 -37 -31 -72
l-23 -62 -24 35 -24 35 21 30 c29 40 7 49 -28 11 l-28 -31 1 27 c0 29 -22 43
-31 20z"/>
<path d="M2706 489 c-20 -16 -26 -29 -26 -58 0 -46 24 -71 68 -71 60 0 84 79
37 125 -29 30 -45 31 -79 4z"/>
</g>
</svg>
