<?xml version="1.0" standalone="no"?>
<!DOCTYPE svg PUBLIC "-//W3C//DTD SVG 20010904//EN"
 "http://www.w3.org/TR/2001/REC-SVG-20010904/DTD/svg10.dtd">
<svg version="1.0" xmlns="http://www.w3.org/2000/svg"
 width="1200.000000pt" height="1156.000000pt" viewBox="0 0 1200.000000 1156.000000"
 preserveAspectRatio="xMidYMid meet">
<metadata>
Created by potrace 1.16, written by Peter Selinger 2001-2019
</metadata>
<g transform="translate(0.000000,1156.000000) scale(0.100000,-0.100000)"
fill="#000000" stroke="none">
<path d="M5839 11537 c-154 -56 -273 -185 -315 -342 -19 -68 -17 -200 2 -266
72 -246 332 -401 586 -348 125 26 259 122 323 233 61 105 81 259 50 381 -37
142 -134 257 -272 323 -74 35 -84 37 -193 40 -100 2 -123 0 -181 -21z"/>
<path d="M4730 10493 l0 -258 453 -179 c248 -99 489 -194 535 -212 l82 -33 0
149 0 148 -525 321 c-289 177 -530 321 -535 321 -6 0 -10 -100 -10 -257z"/>
<path d="M6732 10429 l-522 -321 0 -144 0 -144 48 19 c26 10 262 103 525 206
l477 188 0 259 c0 142 -1 258 -3 258 -2 0 -238 -144 -525 -321z"/>
<path d="M3168 10543 c-302 -394 -535 -916 -627 -1405 -54 -284 -75 -667 -52
-953 58 -709 319 -1368 767 -1930 119 -149 381 -409 539 -534 949 -755 2205
-971 3350 -577 981 336 1767 1101 2130 2071 207 552 272 1159 189 1750 -80
571 -299 1121 -614 1540 -39 52 -76 95 -82 95 -6 0 -2 -12 8 -27 233 -356 410
-848 473 -1318 33 -242 42 -570 21 -775 -65 -650 -308 -1243 -717 -1755 -112
-140 -336 -365 -478 -479 -335 -269 -750 -484 -1156 -601 -527 -152 -1127
-170 -1664 -49 -465 104 -939 334 -1320 640 -231 186 -480 458 -627 684 -306
469 -483 890 -557 1320 -39 229 -46 304 -45 525 2 416 40 681 149 1040 77 253
154 429 289 659 42 71 74 131 72 133 -2 2 -24 -22 -48 -54z"/>
<path d="M6973 9928 l-763 -302 0 -367 0 -368 533 180 c292 100 639 217 770
261 l237 80 0 409 c0 225 -3 409 -7 408 -5 0 -351 -136 -770 -301z"/>
<path d="M3510 8686 c0 -449 3 -816 7 -816 21 0 2281 826 2275 831 -4 4 -513
183 -1132 399 -619 216 -1131 395 -1137 397 -10 4 -13 -162 -13 -811z"/>
<path d="M5590 7335 l0 -1085 405 0 405 0 0 1085 0 1085 -405 0 -405 0 0
-1085z"/>
<path d="M4863 8157 l-473 -172 3 -643 2 -644 474 -199 c261 -109 476 -199
478 -199 2 0 3 457 3 1015 0 558 -3 1015 -7 1014 -5 0 -221 -78 -480 -172z"/>
<path d="M6610 7316 l0 -1016 48 19 c26 11 241 100 477 200 l430 180 0 643 0
643 -460 167 c-253 92 -468 170 -477 174 -17 5 -18 -47 -18 -1010z"/>
<path d="M1413 4077 l-83 -21 0 -473 0 -473 90 0 90 0 0 249 0 250 26 20 c93
73 214 36 235 -71 4 -24 8 -134 9 -245 l0 -203 86 0 86 0 -5 258 c-4 276 -9
306 -58 365 -47 57 -109 81 -214 81 -66 0 -99 -5 -122 -17 -18 -9 -34 -17 -38
-17 -3 0 -5 72 -5 160 0 88 -3 160 -7 159 -5 -1 -45 -11 -90 -22z"/>
<path d="M7543 4055 c-38 -16 -53 -42 -53 -88 0 -72 74 -116 138 -83 37 19 52
44 52 86 0 44 -16 69 -55 86 -41 17 -42 17 -82 -1z"/>
<path d="M10535 4056 c-73 -32 -70 -145 4 -176 65 -27 131 17 131 86 0 76 -67
120 -135 90z"/>
<path d="M0 3970 l0 -80 145 0 145 0 0 -390 0 -390 90 0 90 0 0 390 0 390 155
0 155 0 0 80 0 80 -390 0 -390 0 0 -80z"/>
<path d="M5802 3683 c3 -320 6 -374 21 -412 28 -71 62 -107 134 -143 65 -32
73 -33 183 -33 150 0 203 18 280 95 32 31 62 72 70 95 11 31 15 124 17 403 l4
362 -90 0 -90 0 -3 -349 c-3 -337 -4 -351 -24 -378 -93 -125 -284 -99 -323 44
-7 23 -11 166 -11 361 l0 322 -86 0 -85 0 3 -367z"/>
<path d="M10943 3968 l-83 -30 0 -69 0 -69 -40 0 -40 0 0 -70 0 -70 40 0 40 0
0 -192 c0 -203 6 -245 43 -298 37 -55 88 -75 192 -75 50 1 102 4 118 8 27 7
27 9 27 87 l0 79 -36 -15 c-20 -8 -56 -14 -81 -12 -37 2 -50 9 -67 31 -19 26
-21 44 -24 208 l-4 179 96 0 96 0 0 70 0 70 -95 0 -94 0 -3 99 -3 99 -82 -30z"/>
<path d="M845 3801 c-112 -29 -174 -117 -156 -218 15 -80 51 -114 187 -182 82
-40 103 -55 114 -81 16 -40 1 -77 -35 -86 -41 -10 -123 3 -162 26 -19 11 -38
20 -42 20 -16 0 -62 -122 -52 -134 6 -7 40 -22 76 -35 85 -30 226 -27 290 6
73 39 115 103 115 177 0 102 -58 172 -186 223 -44 18 -90 42 -102 53 -28 26
-29 75 -3 90 32 17 113 12 156 -10 21 -11 42 -17 46 -12 13 13 49 113 44 122
-19 30 -222 59 -290 41z"/>
<path d="M3227 3799 c-76 -18 -78 -20 -57 -90 10 -34 20 -63 22 -65 2 -2 22 3
43 11 53 19 158 19 195 0 32 -17 60 -51 60 -75 0 -12 -16 -15 -83 -16 -118 -1
-190 -25 -248 -82 -110 -110 -89 -296 41 -362 79 -40 213 -33 283 14 l34 23
37 -35 c35 -32 42 -34 84 -28 43 6 82 29 82 48 0 5 -10 22 -22 39 -21 28 -23
45 -30 220 -4 139 -11 205 -24 246 -23 74 -75 127 -145 147 -58 17 -208 20
-272 5z m273 -424 c0 -98 -45 -145 -139 -145 -76 0 -118 71 -81 140 18 34 86
60 158 60 l62 0 0 -55z"/>
<path d="M4075 3799 c-16 -7 -44 -22 -62 -35 l-31 -24 -11 30 c-10 29 -12 30
-70 30 l-61 0 0 -350 0 -350 85 0 85 0 0 255 0 255 42 27 c47 32 117 38 161
14 54 -29 61 -64 65 -313 l4 -228 79 0 79 0 0 243 c0 187 -3 255 -15 294 -16
54 -65 112 -118 140 -39 20 -188 28 -232 12z"/>
<path d="M4813 3790 c-153 -61 -239 -227 -213 -413 18 -127 94 -226 201 -263
78 -27 234 -25 310 5 96 37 96 37 60 109 -17 34 -33 62 -36 62 -2 0 -26 -12
-52 -26 -42 -22 -58 -25 -125 -22 -58 2 -83 8 -105 24 -38 28 -73 81 -73 110
l0 24 239 0 c166 0 242 3 247 11 4 6 7 46 7 88 1 126 -57 221 -168 279 -70 36
-215 42 -292 12z m223 -149 c28 -17 64 -73 64 -100 0 -8 -50 -11 -160 -11
l-160 0 10 25 c16 42 41 75 69 90 39 21 139 19 177 -4z"/>
<path d="M6884 3780 c-57 -31 -73 -29 -74 8 0 8 -20 12 -65 12 l-65 0 0 -350
0 -350 85 0 85 0 0 249 0 249 30 26 c17 14 49 31 71 38 52 15 113 -4 143 -45
20 -27 21 -43 24 -268 l3 -239 86 0 85 0 -4 258 c-4 279 -6 293 -64 361 -71
85 -229 109 -340 51z"/>
<path d="M8770 3801 c-87 -28 -174 -102 -211 -179 -53 -109 -46 -282 14 -384
35 -59 103 -110 170 -130 102 -29 299 -7 358 41 l24 19 -30 61 c-30 64 -38 70
-64 47 -26 -22 -80 -36 -139 -36 -97 0 -166 50 -186 133 l-6 27 244 0 c279 0
256 -9 256 99 0 87 -22 149 -71 205 -61 69 -133 100 -243 103 -50 1 -102 -1
-116 -6z m206 -171 c22 -21 54 -76 54 -95 0 -3 -72 -5 -160 -5 -88 0 -160 2
-160 5 0 22 47 89 73 106 47 30 155 23 193 -11z"/>
<path d="M9569 3800 c-14 -4 -38 -15 -52 -25 -26 -17 -27 -17 -27 4 0 20 -5
21 -85 21 l-85 0 0 -350 0 -350 85 0 85 0 0 223 0 223 29 45 c41 66 101 83
186 55 17 -6 25 3 53 59 17 36 32 69 32 74 0 26 -156 41 -221 21z"/>
<path d="M9995 3801 c-46 -12 -87 -36 -120 -70 -25 -28 -30 -40 -33 -99 -2
-52 1 -75 16 -102 24 -45 95 -98 172 -130 78 -32 109 -58 116 -96 5 -25 1 -37
-16 -54 -20 -20 -30 -22 -86 -17 -39 3 -77 13 -99 26 -20 11 -40 21 -44 21 -5
0 -21 -28 -35 -62 -32 -73 -31 -73 63 -109 46 -17 73 -20 151 -17 80 3 103 8
145 31 62 34 94 79 101 143 14 117 -43 196 -183 253 -44 18 -90 41 -102 52
-27 25 -28 75 -2 89 32 17 113 12 156 -10 21 -11 42 -17 46 -12 13 13 49 113
44 122 -19 30 -222 59 -290 41z"/>
<path d="M2033 3783 c4 -15 226 -610 252 -675 5 -12 18 -18 39 -18 32 0 32 0
121 200 49 110 92 200 95 200 3 0 45 -90 94 -200 l90 -201 35 3 35 3 128 345
c70 190 127 348 128 353 0 4 -37 7 -83 7 l-83 0 -69 -195 c-39 -107 -72 -195
-75 -195 -3 0 -42 87 -86 193 l-81 192 -34 3 -35 3 -78 -196 c-43 -107 -79
-195 -81 -195 -1 0 -33 88 -70 195 l-68 195 -89 0 c-81 0 -90 -2 -85 -17z"/>
<path d="M7410 3730 l0 -70 45 0 45 0 0 -275 0 -275 85 0 85 0 0 345 0 345
-130 0 -130 0 0 -70z"/>
<path d="M7764 3783 c3 -10 73 -169 154 -353 l149 -335 35 -3 35 -3 157 348
c86 191 156 351 156 356 0 4 -40 7 -89 7 l-88 0 -83 -201 c-76 -184 -85 -199
-95 -177 -7 12 -43 103 -80 201 l-68 177 -94 0 c-85 0 -94 -2 -89 -17z"/>
<path d="M10400 3730 l0 -70 45 0 45 0 0 -275 0 -275 85 0 85 0 0 345 0 345
-130 0 -130 0 0 -70z"/>
<path d="M11310 3788 c0 -7 56 -153 125 -325 134 -331 152 -398 120 -433 -18
-20 -58 -34 -127 -45 l-38 -6 0 -71 0 -71 68 5 c84 6 172 47 213 98 25 33 329
813 329 846 0 11 -20 14 -84 14 l-84 0 -45 -122 c-24 -68 -61 -171 -82 -231
-21 -59 -40 -105 -43 -102 -3 2 -45 105 -93 227 l-87 223 -86 3 c-65 2 -86 0
-86 -10z"/>
<path d="M5583 2522 l-63 -15 0 -479 0 -478 85 0 85 0 2 257 3 257 40 23 c75
42 167 24 202 -40 15 -27 18 -65 21 -259 l3 -228 86 0 85 0 -4 258 -3 258 -30
59 c-23 45 -42 66 -79 90 -47 28 -55 30 -155 30 -80 0 -114 -4 -138 -17 l-33
-16 0 159 c0 183 10 170 -107 141z"/>
<path d="M7932 2522 l-63 -16 3 -454 3 -454 33 -29 c38 -34 93 -39 148 -13 49
23 63 52 36 73 -50 38 -52 61 -52 501 l0 410 -22 -1 c-13 -1 -51 -8 -86 -17z"/>
<path d="M2734 2506 c-81 -38 -123 -102 -149 -228 -5 -26 -9 -28 -55 -28 l-50
0 0 -70 0 -70 50 0 50 0 0 -280 0 -280 85 0 85 0 0 280 0 280 70 0 70 0 0 70
0 70 -70 0 c-64 0 -70 2 -70 21 0 36 32 89 63 105 28 15 69 15 108 -1 12 -4
21 7 37 50 12 31 22 63 22 70 0 16 -81 35 -148 35 -28 0 -67 -10 -98 -24z"/>
<path d="M3350 2420 l0 -80 150 0 150 0 0 -395 0 -395 85 0 85 0 0 395 0 395
160 0 160 0 0 80 0 80 -395 0 -395 0 0 -80z"/>
<path d="M9411 2275 l-31 -36 -57 17 c-105 31 -217 7 -295 -64 -55 -49 -79
-106 -79 -186 0 -77 20 -128 68 -178 35 -36 35 -36 14 -48 -30 -15 -61 -69
-61 -103 0 -43 25 -82 64 -101 28 -13 63 -16 173 -15 76 0 146 -2 156 -6 21
-9 33 -52 20 -73 -16 -26 -84 -44 -154 -40 -54 3 -76 10 -119 36 -29 18 -56
31 -60 30 -11 -4 -100 -119 -100 -129 0 -4 34 -25 76 -45 64 -32 88 -38 157
-42 242 -12 396 97 371 263 -15 105 -79 149 -219 149 -49 1 -108 -2 -131 -6
-28 -5 -46 -4 -59 6 -18 13 -18 14 4 26 13 6 62 13 110 13 133 3 210 50 247
154 17 50 17 158 -1 208 l-15 40 36 30 36 31 -60 52 -60 52 -31 -35z m-94
-190 c34 -34 35 -37 31 -97 -4 -53 -8 -64 -34 -84 -38 -31 -110 -33 -147 -3
-61 47 -58 161 6 199 52 32 103 26 144 -15z"/>
<path d="M2005 2251 c-88 -23 -178 -101 -216 -186 -17 -36 -24 -75 -27 -142
-8 -171 51 -289 176 -350 52 -25 66 -28 162 -27 121 1 157 13 224 74 95 88
133 268 87 418 -26 88 -87 159 -163 192 -57 25 -186 36 -243 21z m186 -177
c46 -44 66 -139 49 -239 -11 -67 -30 -99 -81 -133 -27 -19 -43 -23 -81 -19
-99 9 -140 73 -141 216 0 127 38 192 126 210 46 10 95 -3 128 -35z"/>
<path d="M4283 2246 c-95 -31 -189 -120 -220 -209 -25 -71 -25 -223 0 -294 24
-68 85 -136 152 -168 98 -48 273 -45 381 8 24 11 44 27 44 34 0 11 -45 109
-55 121 -1 1 -25 -9 -53 -24 -40 -21 -65 -26 -114 -26 -111 0 -163 35 -192
130 l-7 22 244 0 245 0 6 31 c30 151 -33 288 -161 350 -54 27 -79 33 -146 36
-51 2 -98 -2 -124 -11z m213 -166 c22 -21 54 -76 54 -95 0 -3 -72 -5 -161 -5
l-160 0 7 23 c11 36 36 69 69 89 45 29 154 22 191 -12z"/>
<path d="M5022 2242 c-95 -34 -179 -121 -207 -214 -8 -29 -15 -90 -15 -139 0
-195 95 -311 277 -339 87 -14 187 0 260 35 60 30 60 30 17 118 l-24 47 -40
-26 c-30 -20 -56 -28 -108 -31 -119 -8 -194 51 -208 164 -20 159 75 274 213
260 30 -3 70 -15 89 -26 20 -12 39 -19 44 -16 5 3 23 31 41 61 35 63 37 60
-41 97 -65 30 -224 35 -298 9z"/>
<path d="M6605 2250 c-45 -8 -79 -22 -112 -46 -21 -15 -23 -15 -34 10 -11 24
-17 26 -76 26 l-63 0 0 -345 0 -345 85 0 85 0 0 248 c0 225 2 250 18 264 55
49 150 65 199 33 47 -31 53 -66 53 -315 l0 -230 85 0 85 0 0 233 c0 127 -3
249 -6 270 -4 20 -21 61 -38 89 -24 41 -43 58 -86 79 -60 30 -132 41 -195 29z"/>
<path d="M7273 2242 c-90 -32 -150 -90 -195 -188 -19 -42 -23 -65 -22 -154 1
-70 6 -119 17 -148 56 -148 178 -221 351 -210 126 8 213 66 265 177 24 51 26
67 26 181 0 114 -2 130 -26 181 -31 66 -84 120 -147 150 -66 31 -198 36 -269
11z m195 -151 c12 -6 32 -31 44 -54 19 -35 23 -58 23 -137 0 -83 -3 -100 -25
-139 -50 -87 -157 -107 -224 -42 -41 40 -56 88 -56 183 0 145 77 231 185 208
17 -4 40 -12 53 -19z"/>
<path d="M8403 2242 c-90 -32 -151 -91 -195 -188 -18 -40 -22 -68 -22 -149 -1
-114 11 -161 55 -229 63 -95 175 -143 313 -134 126 8 213 66 265 177 24 51 26
67 26 181 0 114 -2 130 -26 181 -54 115 -140 169 -279 176 -65 3 -97 -1 -137
-15z m195 -151 c12 -6 32 -31 44 -54 18 -35 22 -59 23 -137 0 -83 -3 -100 -25
-139 -33 -59 -80 -84 -144 -78 -89 8 -136 83 -136 217 0 88 13 130 54 169 50
49 118 57 184 22z"/>
<path d="M9573 2238 c2 -7 57 -141 120 -298 126 -311 153 -394 143 -435 -8
-33 -73 -64 -133 -65 l-43 0 0 -76 0 -77 63 5 c79 7 154 39 201 87 32 33 57
90 191 445 85 224 155 412 155 417 0 6 -36 9 -87 7 l-86 -3 -83 -230 -82 -229
-14 34 c-8 19 -50 124 -92 233 l-78 197 -90 0 c-68 0 -89 -3 -85 -12z"/>
<path d="M8965 778 c-2 -7 -25 -117 -50 -245 -44 -224 -52 -293 -39 -328 9
-23 57 -45 97 -45 31 0 35 4 39 29 3 23 0 30 -24 39 -38 14 -37 32 17 302 25
123 45 232 45 242 0 14 -8 18 -40 18 -24 0 -42 -5 -45 -12z"/>
<path d="M1990 746 c0 -26 67 -525 75 -563 3 -13 13 -23 23 -23 12 0 44 54
112 185 52 101 98 181 101 177 4 -4 19 -87 35 -184 25 -157 30 -178 47 -178
14 0 50 66 163 296 79 163 144 300 144 305 0 5 -22 9 -49 9 l-48 0 -88 -190
c-49 -105 -89 -189 -90 -188 -1 2 -15 87 -30 191 -25 164 -31 187 -47 187 -13
0 -42 -47 -112 -187 -54 -109 -96 -182 -99 -173 -3 8 -13 80 -22 160 -23 213
-19 200 -71 200 -40 0 -44 -2 -44 -24z"/>
<path d="M3895 615 c-5 -2 -22 -6 -38 -9 -25 -6 -27 -9 -21 -44 4 -23 -6 -102
-25 -207 -17 -94 -31 -173 -31 -178 0 -4 20 -7 44 -7 l43 0 16 88 c9 48 22
120 28 160 11 67 15 75 48 98 20 13 48 24 63 24 26 0 68 -30 68 -48 0 -4 -11
-71 -25 -148 -33 -184 -34 -174 18 -174 l42 0 28 158 c25 146 29 159 57 185
35 32 79 35 103 9 22 -24 21 -42 -8 -206 -14 -77 -25 -142 -25 -144 0 -2 19
-2 43 0 l42 3 27 145 c15 80 27 162 28 183 1 102 -82 143 -200 98 -49 -19 -50
-19 -87 0 -58 30 -149 21 -195 -19 -16 -14 -18 -13 -18 6 0 22 -9 31 -25 27z"/>
<path d="M4560 611 c-34 -6 -35 -7 -38 -56 -2 -46 -77 -498 -88 -537 -5 -15 1
-18 39 -18 52 0 50 -2 67 103 11 69 14 75 31 67 30 -16 130 -11 174 9 85 38
137 129 143 251 3 77 2 88 -20 120 -13 19 -36 41 -51 48 -44 21 -130 18 -171
-6 -35 -21 -36 -21 -36 -2 0 24 -7 27 -50 21z m217 -95 c25 -22 28 -30 27 -89
-1 -86 -32 -143 -94 -175 -32 -17 -56 -22 -84 -18 -60 7 -62 13 -37 128 31
141 29 137 64 159 44 26 90 24 124 -5z"/>
<path d="M5090 605 c-49 -22 -97 -71 -128 -130 -22 -42 -26 -63 -27 -135 0
-96 13 -127 68 -160 44 -27 144 -27 196 0 87 44 143 148 144 265 1 69 -19 114
-66 148 -36 28 -138 34 -187 12z m140 -92 c19 -24 21 -37 17 -94 -6 -86 -38
-147 -90 -173 -55 -26 -96 -13 -121 38 -17 34 -18 46 -8 99 12 64 49 128 85
145 12 6 39 11 59 11 28 1 41 -5 58 -26z"/>
<path d="M7135 612 c-62 -10 -60 -7 -61 -79 -1 -54 -47 -340 -80 -506 -5 -26
-4 -27 39 -27 51 0 44 -12 68 117 10 56 13 61 30 53 35 -19 133 -12 180 13 58
31 114 111 130 185 14 67 6 154 -15 188 -38 56 -153 76 -219 36 l-36 -21 -8
23 c-5 14 -15 21 -28 18z m197 -103 c29 -29 30 -33 26 -93 -7 -85 -38 -139
-95 -167 -31 -15 -55 -20 -80 -16 -62 10 -63 15 -37 140 13 62 24 115 24 119
0 13 74 47 103 48 19 0 39 -10 59 -31z"/>
<path d="M8096 605 c-80 -28 -150 -129 -162 -235 -8 -74 8 -128 51 -170 33
-32 41 -35 108 -38 60 -3 80 1 117 20 153 79 192 354 60 420 -42 21 -120 23
-174 3z m134 -92 c19 -24 21 -37 17 -90 -8 -109 -56 -178 -131 -190 -25 -4
-39 1 -62 20 -27 24 -29 30 -28 94 2 77 20 121 67 165 41 40 106 40 137 1z"/>
<path d="M8485 612 c-63 -10 -61 -7 -62 -74 0 -35 -19 -166 -42 -293 -22 -126
-41 -233 -41 -237 0 -5 20 -8 44 -8 l44 0 11 68 c18 105 12 98 86 94 160 -10
269 103 269 278 1 87 -18 131 -64 155 -42 22 -128 22 -170 2 -42 -21 -48 -21
-52 1 -2 11 -10 16 -23 14z m192 -96 c26 -22 28 -30 27 -93 -1 -77 -17 -117
-64 -156 -38 -33 -88 -43 -134 -27 -20 6 -36 13 -36 15 0 2 11 55 25 119 14
64 25 118 25 120 0 2 15 13 33 25 43 28 89 27 124 -3z"/>
<path d="M2815 595 c-51 -18 -127 -99 -143 -152 -7 -22 -12 -69 -12 -104 1
-146 77 -207 226 -179 l64 12 0 44 c0 24 -2 44 -3 44 -2 0 -19 -7 -36 -16 -74
-37 -161 8 -161 82 0 35 1 35 33 28 96 -23 215 12 250 73 38 67 16 151 -45
172 -42 15 -125 13 -173 -4z m153 -88 c5 -40 -21 -64 -80 -77 -46 -9 -118 -5
-118 7 0 3 9 21 21 39 29 47 64 64 124 61 47 -2 50 -4 53 -30z"/>
<path d="M3511 599 c-55 -16 -127 -97 -147 -165 -20 -69 -15 -167 11 -211 35
-60 113 -83 207 -64 55 12 56 13 62 53 4 22 5 43 2 45 -2 2 -18 -3 -35 -11
-83 -43 -171 5 -171 93 l0 28 48 -12 c57 -15 138 -5 185 23 93 54 102 172 17
214 -38 20 -123 23 -179 7z m147 -92 c5 -40 -21 -64 -80 -77 -54 -11 -118 -5
-118 12 0 6 20 31 44 55 43 42 46 44 98 41 50 -3 53 -5 56 -31z"/>
<path d="M5387 578 c4 -18 23 -118 43 -223 31 -168 37 -190 54 -190 14 0 42
37 101 132 l82 133 22 -83 c48 -177 52 -187 69 -187 12 0 50 65 130 225 l112
225 -45 0 -45 0 -62 -125 c-35 -69 -65 -125 -69 -125 -3 0 -21 55 -40 122 -23
82 -39 124 -49 126 -10 2 -40 -39 -89 -123 -40 -69 -76 -125 -80 -125 -4 0
-15 51 -25 113 -11 61 -21 118 -24 125 -2 7 -22 12 -48 12 l-43 0 6 -32z"/>
<path d="M6140 583 c-95 -48 -149 -160 -134 -277 12 -93 52 -140 129 -152 49
-7 145 10 157 29 10 15 10 77 1 77 -5 -1 -19 -7 -33 -15 -68 -39 -155 2 -167
79 l-6 38 44 -8 c105 -19 182 0 233 57 30 32 36 47 36 84 0 35 -6 52 -29 77
-27 30 -34 33 -102 36 -65 3 -81 0 -129 -25z m174 -65 c29 -46 -79 -105 -166
-92 -37 6 -37 7 -24 33 15 29 53 65 76 74 31 12 103 2 114 -15z"/>
<path d="M6660 599 c-13 -6 -33 -17 -42 -26 -17 -15 -18 -15 -18 5 0 19 -6 22
-43 22 l-44 0 -36 -203 c-20 -111 -37 -211 -37 -220 0 -15 7 -18 42 -15 l43 3
21 122 c28 156 39 187 75 218 38 31 74 41 104 27 21 -10 25 -8 34 20 18 52 15
58 -31 57 -24 0 -54 -5 -68 -10z"/>
<path d="M7661 599 c-55 -16 -127 -97 -147 -165 -20 -69 -15 -167 11 -211 35
-60 113 -83 207 -64 55 12 56 13 62 53 4 22 5 43 2 45 -2 2 -18 -3 -35 -11
-83 -43 -171 5 -171 93 l0 28 48 -12 c86 -23 190 7 234 66 25 33 33 97 16 129
-28 52 -134 75 -227 49z m147 -92 c5 -40 -21 -64 -80 -77 -54 -11 -118 -5
-118 12 0 6 20 31 44 55 43 42 46 44 98 41 50 -3 53 -5 56 -31z"/>
<path d="M9253 585 c-54 -27 -94 -71 -119 -130 -18 -44 -18 -175 0 -219 30
-71 110 -99 214 -75 l57 14 3 43 c3 46 0 48 -38 27 -68 -39 -152 1 -166 79
l-7 38 44 -8 c153 -29 269 35 269 148 0 75 -46 108 -149 108 -41 0 -71 -7
-108 -25z m165 -57 c47 -47 -62 -119 -153 -102 -39 7 -43 18 -19 53 37 52 140
81 172 49z"/>
</g>
</svg>
